<?xml version="1.0" encoding="iso-8859-1"?>
<!-- Generator: Adobe Illustrator 19.0.0, SVG Export Plug-In . SVG Version: 6.00 Build 0)  -->
<svg version="1.1" id="Capa_1" xmlns="http://www.w3.org/2000/svg" xmlns:xlink="http://www.w3.org/1999/xlink" x="0px" y="0px"
	 viewBox="0 0 511.998 511.998" style="enable-background:new 0 0 511.998 511.998;" xml:space="preserve">
<g>
	<g>
		<path fill="#000000" d="M504.383,351.29h-30.89V114.84c0-13.16-10.707-23.867-23.867-23.867H162.142c-4.206,0-7.617,3.409-7.617,7.617
			c0,4.207,3.41,7.617,7.617,7.617h287.484c4.761,0,8.634,3.873,8.634,8.634v236.45H53.739V114.84c0-4.761,3.873-8.634,8.634-8.634
			H98.28c4.206,0,7.617-3.409,7.617-7.617c0-4.207-3.41-7.617-7.617-7.617H62.373c-13.16,0-23.867,10.707-23.867,23.867v236.45
			H7.617C3.41,351.29,0,354.699,0,358.906v16.673c0,25.06,20.387,45.447,45.446,45.447h421.106
			c25.059,0,45.446-20.387,45.446-45.447v-16.673C512,354.699,508.59,351.29,504.383,351.29z M496.768,375.579L496.768,375.579
			c-0.001,16.66-13.555,30.214-30.214,30.214H45.446c-16.659,0-30.213-13.554-30.213-30.214v-9.057h30.89h419.755h30.89V375.579z"/>
	</g>
</g>
<g>
	<g>
		<path fill="#000000" d="M430.679,122.431H80.341c-4.206,0-7.617,3.409-7.617,7.617v198.489c0,4.207,3.41,7.617,7.617,7.617h248.226
			c4.207,0,7.617-3.409,7.617-7.617c0-4.207-3.409-7.617-7.617-7.617H87.958V137.664h335.104V320.92h-33.805
			c-4.207,0-7.617,3.409-7.617,7.617c0,4.207,3.409,7.617,7.617,7.617h41.422c4.207,0,7.617-3.409,7.617-7.617v-198.49
			C438.295,125.84,434.886,122.431,430.679,122.431z"/>
	</g>
</g>
<g>
	<g>
		<path fill="#000000" d="M287.325,217.659l-42.81-28.777c-2.337-1.569-5.348-1.722-7.831-0.4c-2.484,1.323-4.036,3.908-4.036,6.722v57.555
			c0,2.814,1.552,5.399,4.036,6.722c1.123,0.598,2.353,0.895,3.581,0.895c1.487,0,2.969-0.436,4.25-1.295l42.81-28.777
			c2.105-1.416,3.368-3.786,3.368-6.322C290.693,221.445,289.431,219.075,287.325,217.659z M247.882,238.462v-28.961l21.541,14.481
			L247.882,238.462z"/>
	</g>
</g>
<g>
	<g>
		<path fill="#000000" d="M256,150.202c-40.682,0-73.78,33.097-73.78,73.779c0,40.682,33.097,73.779,73.78,73.779
			c40.681,0,73.779-33.097,73.779-73.779C329.779,183.299,296.681,150.202,256,150.202z M256,282.526
			c-32.283,0-58.547-26.264-58.547-58.546s26.264-58.546,58.547-58.546c32.283,0,58.546,26.264,58.546,58.546
			S288.283,282.526,256,282.526z"/>
	</g>
</g>
<g>
	<g>
		<path fill="#000000" d="M305.452,377.016H207.96c-4.206,0-7.617,3.409-7.617,7.617s3.41,7.617,7.617,7.617h97.492
			c4.207,0,7.617-3.409,7.617-7.617S309.658,377.016,305.452,377.016z"/>
	</g>
</g>
<g>
</g>
<g>
</g>
<g>
</g>
<g>
</g>
<g>
</g>
<g>
</g>
<g>
</g>
<g>
</g>
<g>
</g>
<g>
</g>
<g>
</g>
<g>
</g>
<g>
</g>
<g>
</g>
<g>
</g>
</svg>
